# xmcd CD database file
#
# Track frame offsets:
#	150
#	22013
#	40832
#	58937
#	80394
#	94831
#	110548
#	126319
#	144863
#	164331
#	182277
#
# Disc length: 2754 seconds
#
# Revision: 1
# Processed by: cddbd v1.5.2PL0 Copyright (c) Steve Scherf et al.
# Submitted via: CDex 2.06
#
DISCID=8d0ac00b
DTITLE=Thomas Oliver - The Edge Of America
DYEAR=2013
DGENRE=Country
TTITLE0=The Edge of America
TTITLE1=You Got Me
TTITLE2=The Girl With An Accidental Memory
TTITLE3=Old Men
TTITLE4=Hotter Than 4th July
TTITLE5=A Place To Call Home
TTITLE6=One Day At A Time
TTITLE7=Atlanta's Burning
TTITLE8=The Message
TTITLE9=Last Child
TTITLE10=Ballad Of Tybee Island
EXTD=YEAR: 2013
EXTT0=
EXTT1=
EXTT2=
EXTT3=
EXTT4=
EXTT5=
EXTT6=
EXTT7=
EXTT8=
EXTT9=
EXTT10=
PLAYORDER=
